<?xml version="1.0" encoding="UTF-8"?>
<svg id="uuid-2527fd8c-e969-484e-808c-2a4fb44390e0" data-name="Capa_2" xmlns="http://www.w3.org/2000/svg" viewBox="0 0 442.38 393.23">
  <g id="uuid-eed356af-d0e0-46ca-85ab-01ea5ad9cc9e" data-name="Capa_1">
    <g>
      <path d="M319.54,0H122.93C86.71,0,57.36,23.44,57.36,52.36v288.5c0,28.92,16.77,52.37,37.47,52.37s37.47-23.45,37.47-52.37v-10.98c0-.66-.01-1.31-.04-1.96h177.95c-.03.65-.04,1.3-.04,1.96v10.98c0,28.92,16.77,52.37,37.47,52.37s37.47-23.45,37.47-52.37V52.36c0-28.92-29.35-52.36-65.57-52.36ZM121.09,285.94c-11.98,0-21.69-9.72-21.69-21.71s9.71-21.7,21.69-21.7,21.7,9.72,21.7,21.7-9.72,21.71-21.7,21.71ZM321.9,285.94c-11.98,0-21.7-9.72-21.7-21.71s9.72-21.7,21.7-21.7,21.69,9.72,21.69,21.7-9.71,21.71-21.69,21.71ZM99.33,215.83V68.24h243.64l.69,147.59H99.33Z" fill="#fff"/>
      <g>
        <path d="M433.11,150.8s13.6-75.45-47.99-67.65" fill="none" stroke="#fff" stroke-linecap="round" stroke-miterlimit="1" stroke-width="16"/>
        <path d="M9.28,150.8S-4.33,75.35,57.27,83.15" fill="none" stroke="#fff" stroke-linecap="round" stroke-miterlimit="1" stroke-width="16"/>
      </g>
    </g>
  </g>
</svg>