<svg xmlns="http://www.w3.org/2000/svg" xml:space="preserve" width="761" height="740.6" viewBox="0 0 761 741">
<!--!Font Awesome Free 6.5.2 by @fontawesome - https://fontawesome.com License - https://fontawesome.com/license/free Copyright 2024 Fonticons, Inc.-->
  <path d="M222 741 0 525V216L222 0h317l222 216v309L539 741Z"/>
  <path fill="#fff" d="M396 143a32 32 0 1 0-64 0v208c0 9-7 16-16 16s-16-7-16-16V175a32 32 0 1 0-64 0v276l-60-57a40 40 0 0 0-55 58l112 107c43 41 100 64 160 64h19c97 0 176-79 176-176V239a32 32 0 1 0-64 0v112c0 9-7 16-16 16s-16-7-16-16V175a32 32 0 1 0-64 0v176c0 9-7 16-16 16s-16-7-16-16z"/>
</svg>
